<?xml version="1.0" standalone="no"?>
<!DOCTYPE svg PUBLIC "-//W3C//DTD SVG 20010904//EN"
 "http://www.w3.org/TR/2001/REC-SVG-20010904/DTD/svg10.dtd">
<svg version="1.0" xmlns="http://www.w3.org/2000/svg"
 width="2792.000000pt" height="389.000000pt" viewBox="0 0 2792.000000 389.000000"
 preserveAspectRatio="xMidYMid meet">
<metadata>
Created by potrace 1.16, written by Peter Selinger 2001-2019
</metadata>
<g transform="translate(0.000000,389.000000) scale(0.100000,-0.100000)"
fill="#000000" stroke="none">
<path d="M4434 3709 c-402 -29 -709 -146 -908 -345 -155 -156 -239 -350 -267
-621 -32 -296 72 -595 274 -792 25 -24 222 -161 438 -305 455 -302 465 -310
457 -411 -8 -100 -48 -159 -138 -206 -44 -23 -51 -24 -290 -23 -180 1 -317 8
-520 28 -361 34 -355 34 -395 -8 -26 -28 -34 -48 -43 -103 -6 -37 -29 -177
-52 -311 -39 -227 -41 -244 -26 -267 23 -35 59 -51 179 -80 458 -110 961 -122
1347 -31 397 94 709 316 859 613 93 185 127 360 118 598 -8 206 -56 347 -163
482 -103 131 -163 173 -614 439 -390 229 -450 274 -450 337 0 71 33 122 105
160 38 21 52 22 280 20 148 -1 374 -11 590 -27 383 -29 393 -28 421 26 8 16
20 55 25 86 24 139 40 227 64 362 39 217 37 236 -29 264 -107 45 -477 97 -826
116 -197 11 -276 11 -436 -1z"/>
<path d="M7150 3710 c-275 -17 -487 -76 -658 -184 -69 -44 -191 -165 -245
-245 -67 -100 -131 -238 -167 -364 -37 -130 -26 -68 -187 -977 -129 -724 -136
-774 -140 -926 -4 -141 -2 -172 16 -244 91 -361 377 -552 884 -592 221 -17
866 15 1054 53 57 11 99 45 107 87 3 15 14 79 26 142 11 63 27 149 34 190 49
270 49 270 38 296 -25 53 -38 54 -594 54 -468 0 -516 2 -548 18 -43 21 -62 68
-54 135 3 27 20 135 39 240 19 104 35 194 35 199 0 4 264 8 588 8 642 0 615
-2 646 58 7 15 18 56 25 92 6 36 27 152 46 259 42 235 44 279 12 309 l-23 22
-582 0 c-320 0 -582 1 -582 3 0 2 9 55 21 118 11 63 26 149 34 193 18 103 55
178 103 208 l37 23 540 5 c492 5 543 7 572 23 43 23 56 52 76 167 9 52 33 186
52 297 20 115 33 214 29 228 -11 45 -40 54 -240 75 -315 34 -719 46 -994 30z"/>
<path d="M9718 3710 c-525 -39 -893 -229 -1066 -551 -42 -78 -87 -218 -102
-314 -7 -44 -13 -143 -12 -220 0 -117 4 -156 26 -239 45 -175 136 -330 259
-442 31 -28 167 -125 304 -215 464 -307 517 -344 547 -382 28 -35 31 -46 30
-105 -1 -107 -42 -169 -139 -214 -44 -20 -69 -23 -200 -26 -158 -4 -270 3
-688 39 -346 31 -330 41 -376 -236 -17 -99 -40 -237 -52 -307 -20 -121 -21
-129 -4 -154 23 -36 78 -58 240 -93 379 -83 819 -101 1147 -45 622 105 1018
455 1103 974 47 295 -8 568 -150 745 -106 132 -183 187 -611 439 -194 114
-372 225 -398 247 -89 79 -68 190 48 252 39 21 51 22 281 20 149 -1 375 -11
593 -28 387 -29 379 -29 417 28 18 29 117 586 113 640 -3 34 -8 44 -37 61
-132 77 -901 153 -1273 126z"/>
<path d="M15035 3594 c-553 -75 -888 -324 -994 -739 -89 -349 -14 -696 203
-931 62 -68 117 -108 439 -321 384 -255 429 -288 453 -334 20 -39 18 -135 -5
-184 -55 -119 -165 -152 -457 -135 -176 10 -455 33 -609 50 -161 17 -186 15
-223 -23 -32 -33 -34 -39 -82 -323 -28 -159 -50 -301 -50 -315 0 -54 53 -81
244 -124 243 -54 387 -68 696 -69 360 -1 511 21 753 108 505 183 777 561 777
1078 0 270 -77 460 -251 623 -80 74 -150 121 -404 270 -395 232 -471 279 -507
316 -33 32 -38 43 -38 84 0 98 47 145 169 171 60 12 105 13 279 4 241 -12 471
-27 627 -40 143 -13 232 -13 256 0 10 6 25 23 33 39 20 39 120 614 112 645
-12 48 -100 76 -366 116 -337 50 -824 66 -1055 34z"/>
<path d="M17745 3603 c-382 -47 -611 -157 -778 -375 -94 -123 -172 -296 -221
-493 -8 -33 -79 -424 -157 -870 -135 -771 -142 -816 -141 -940 0 -99 5 -149
21 -208 79 -299 294 -473 686 -553 78 -16 136 -19 430 -18 417 1 790 31 847
68 43 28 38 9 118 448 37 204 37 228 7 256 -23 22 -24 22 -503 22 -264 0 -506
5 -539 10 -124 20 -133 61 -78 365 l38 210 577 5 576 5 27 25 c38 35 42 46 59
146 8 49 31 177 50 284 34 189 35 196 18 230 -10 20 -27 37 -42 41 -14 4 -276
7 -584 8 -479 1 -557 3 -553 15 3 8 17 81 31 163 33 190 52 253 88 297 53 65
67 66 639 66 l507 0 31 26 c17 14 35 42 41 62 16 58 100 548 100 586 0 70 -38
81 -415 111 -163 13 -792 19 -880 8z"/>
<path d="M23825 3604 c-214 -31 -297 -54 -420 -117 -104 -54 -232 -179 -292
-287 -44 -78 -1161 -2892 -1170 -2946 -4 -24 0 -37 16 -53 21 -21 27 -21 454
-21 405 0 434 1 463 19 41 25 26 -11 254 588 l43 113 392 0 392 0 6 -182 c4
-99 7 -241 7 -315 0 -143 11 -192 48 -212 14 -7 158 -11 437 -11 l417 0 29 29
c34 35 35 50 19 369 -5 108 -14 310 -20 447 -25 602 -41 964 -55 1305 -27 659
-36 814 -51 875 -52 211 -189 329 -444 382 -72 15 -453 27 -525 17z m108 -778
c3 -8 8 -261 12 -563 3 -301 8 -565 10 -585 l5 -38 -260 0 c-143 0 -260 2
-260 5 0 4 410 1114 435 1178 8 20 51 23 58 3z"/>
<path d="M19560 3549 c-55 -25 -86 -53 -111 -100 -17 -34 -100 -498 -475
-2648 -52 -299 -92 -552 -89 -562 4 -10 18 -28 32 -39 25 -19 39 -20 395 -20
303 0 374 3 397 14 52 27 56 39 107 331 7 44 23 130 33 190 11 61 27 153 36
205 9 52 23 129 31 170 7 41 25 140 39 220 13 80 40 235 60 345 19 110 35 201
35 202 0 2 6 3 14 3 7 0 25 -26 39 -57 14 -32 172 -391 352 -798 201 -455 337
-751 353 -769 51 -54 63 -56 418 -56 l326 0 49 27 c51 28 103 92 113 141 3 15
49 272 101 572 52 300 111 635 130 745 20 110 43 241 51 290 9 50 22 124 29
165 128 723 235 1345 235 1371 0 18 -9 39 -25 54 l-24 25 -366 0 c-394 0 -417
-3 -449 -52 -10 -15 -71 -340 -161 -853 -80 -456 -148 -831 -151 -834 -10 -11
-32 33 -195 404 -251 571 -377 858 -464 1055 -82 186 -109 230 -159 261 -29
18 -53 19 -346 19 -295 0 -318 -2 -360 -21z"/>
<path d="M25835 3560 c-11 -4 -30 -19 -42 -32 -21 -22 -27 -41 -48 -163 -2
-16 -9 -55 -15 -85 -5 -30 -12 -72 -16 -94 -6 -40 -7 -49 -23 -131 -6 -27 -12
-66 -15 -85 -3 -19 -10 -57 -15 -85 -22 -109 -36 -225 -28 -225 3 0 43 18 89
40 46 22 274 129 508 239 l425 198 6 39 c4 22 14 82 24 134 9 52 19 122 22
156 5 54 3 64 -18 83 -23 21 -27 21 -428 20 -223 0 -415 -4 -426 -9z"/>
<path d="M12240 2833 c-52 -24 -189 -89 -305 -143 -509 -238 -620 -291 -626
-298 -6 -6 -47 -221 -94 -497 -14 -83 -43 -245 -70 -400 -9 -49 -23 -127 -31
-172 -8 -46 -21 -121 -29 -168 -8 -47 -22 -122 -30 -167 -8 -46 -37 -211 -64
-368 -28 -157 -51 -301 -51 -321 0 -24 7 -42 23 -57 23 -22 26 -22 444 -22
406 0 421 1 446 20 30 24 43 58 62 171 7 46 21 123 29 171 9 49 22 125 30 170
8 46 24 137 36 203 12 66 27 156 35 200 133 760 296 1685 300 1703 3 12 2 22
-2 21 -5 0 -51 -21 -103 -46z"/>
<path d="M26440 2725 c-74 -34 -299 -140 -499 -234 -201 -94 -369 -175 -374
-180 -5 -5 -32 -135 -59 -288 -26 -153 -55 -314 -63 -358 -108 -605 -245
-1395 -245 -1413 0 -13 11 -34 25 -47 l24 -25 414 0 c408 0 415 0 441 21 32
25 42 48 55 127 6 31 94 532 196 1112 102 580 192 1091 200 1135 41 236 39
215 28 214 -5 0 -69 -29 -143 -64z"/>
</g>
</svg>
