<?xml version="1.0" encoding="UTF-8"?>
<!DOCTYPE svg PUBLIC "-//W3C//DTD SVG 1.1//EN" "http://www.w3.org/Graphics/SVG/1.1/DTD/svg11.dtd">
<svg xmlns="http://www.w3.org/2000/svg" version="1.1" width="2792px" height="389px" style="shape-rendering:geometricPrecision; text-rendering:geometricPrecision; image-rendering:optimizeQuality; fill-rule:evenodd; clip-rule:evenodd" xmlns:xlink="http://www.w3.org/1999/xlink">
<g><path style="opacity:0.995" fill="#0e4094" d="M 453.5,16.5 C 487.079,16.4649 520.413,19.2983 553.5,25C 559.683,26.0456 565.683,27.7123 571.5,30C 573.708,31.8357 575.042,34.169 575.5,37C 571.951,56.4557 568.451,75.9557 565,95.5C 563.941,102.363 559.941,105.696 553,105.5C 515.92,101.696 478.753,99.8631 441.5,100C 428.947,101.872 423.114,109.039 424,121.5C 425.793,124.295 427.96,126.795 430.5,129C 456.001,144.585 481.668,159.918 507.5,175C 534.049,192.592 547.049,217.426 546.5,249.5C 545.802,300.006 522.468,335.506 476.5,356C 449.719,366.603 421.885,371.77 393,371.5C 362.26,371.347 332.093,367.18 302.5,359C 298.04,357.543 295.374,354.543 294.5,350C 298,329.833 301.5,309.667 305,289.5C 307.756,283.872 312.256,281.538 318.5,282.5C 340.488,284.484 362.488,286.317 384.5,288C 396.5,288.667 408.5,288.667 420.5,288C 436.819,284.869 443.985,275.036 442,258.5C 440.262,254.759 437.762,251.592 434.5,249C 409.833,232.667 385.167,216.333 360.5,200C 336.847,180.764 324.847,155.764 324.5,125C 325.566,73.4719 350.566,40.1386 399.5,25C 417.358,20.3001 435.358,17.4667 453.5,16.5 Z"/></g>
<g><path style="opacity:0.994" fill="#0d4093" d="M 726.5,16.5 C 760.613,16.3027 794.613,18.136 828.5,22C 834.709,21.8785 838.043,24.8785 838.5,31C 834.871,50.8117 831.371,70.645 828,90.5C 826.181,95.3357 822.681,98.169 817.5,99C 781.453,99.0258 745.453,99.6924 709.5,101C 704.853,103.106 701.686,106.606 700,111.5C 696.59,125.715 693.757,140.048 691.5,154.5C 730.501,154.333 769.501,154.5 808.5,155C 809.667,156.167 810.833,157.333 812,158.5C 812.663,164.548 812.33,170.548 811,176.5C 808.333,191.168 805.666,205.835 803,220.5C 801.895,223.937 799.728,226.437 796.5,228C 757.168,228.5 717.835,228.667 678.5,228.5C 675.836,244.155 673.169,259.821 670.5,275.5C 670.227,282.149 673.227,286.316 679.5,288C 714.167,288.333 748.833,288.667 783.5,289C 788.66,289.825 791.327,292.825 791.5,298C 787.947,317.485 784.447,336.985 781,356.5C 779.833,361 777,363.833 772.5,365C 738.336,369.827 704.002,371.827 669.5,371C 647.493,370.734 626.826,365.4 607.5,355C 589.304,343.467 578.47,326.967 575,305.5C 574.333,295.167 574.333,284.833 575,274.5C 583.892,222.814 592.892,171.147 602,119.5C 605.431,95.6517 614.098,73.985 628,54.5C 642.16,37.668 659.993,26.8346 681.5,22C 696.503,18.9158 711.503,17.0825 726.5,16.5 Z"/></g>
<g><path style="opacity:0.995" fill="#0e4094" d="M 982.5,16.5 C 1020.26,16.3435 1057.59,20.1769 1094.5,28C 1102.19,30.4256 1104.69,35.5922 1102,43.5C 1099.08,62.6736 1095.42,81.6736 1091,100.5C 1088.59,104.037 1085.26,105.704 1081,105.5C 1043.92,101.696 1006.75,99.8631 969.5,100C 955.607,102.194 950.107,110.027 953,123.5C 954.833,125.333 956.667,127.167 958.5,129C 984.001,144.585 1009.67,159.918 1035.5,175C 1066.32,196.403 1079.15,225.903 1074,263.5C 1068.39,307.579 1045.22,338.412 1004.5,356C 974.292,367.84 942.959,372.84 910.5,371C 883.309,370.435 856.643,366.435 830.5,359C 825.81,357.481 823.143,354.314 822.5,349.5C 825.826,328.711 829.659,308.044 834,287.5C 836.95,283.36 840.95,281.693 846,282.5C 868.158,284.454 890.325,286.287 912.5,288C 924.5,288.667 936.5,288.667 948.5,288C 964.426,285.077 971.593,275.577 970,259.5C 968.616,255.242 966.116,251.742 962.5,249C 939.167,233.667 915.833,218.333 892.5,203C 866.389,183.949 853.056,158.115 852.5,125.5C 853.319,73.8602 878.319,40.3602 927.5,25C 945.68,20.1903 964.014,17.357 982.5,16.5 Z"/></g>
<g><path style="opacity:0.985" fill="#68b42d" d="M 1157.5,21.5 C 1185.84,21.3334 1214.17,21.5 1242.5,22C 1245.82,23.8038 1247.15,26.6372 1246.5,30.5C 1244.81,41.1872 1242.97,51.8538 1241,62.5C 1240.49,64.5206 1239.32,66.0206 1237.5,67C 1204.02,82.243 1170.68,97.743 1137.5,113.5C 1137.17,112.667 1136.83,111.833 1136.5,111C 1141.29,82.754 1146.46,54.5873 1152,26.5C 1153.73,24.5981 1155.56,22.9314 1157.5,21.5 Z"/></g>
<g><path style="opacity:0.996" fill="#0e4093" d="M 1512.5,27.5 C 1554.63,25.6501 1596.3,29.1501 1637.5,38C 1644.54,39.916 1647.04,44.416 1645,51.5C 1641.89,68.4806 1638.89,85.4806 1636,102.5C 1634.82,111.681 1629.65,115.347 1620.5,113.5C 1588.7,111.023 1556.86,109.023 1525,107.5C 1516.26,107.517 1508.26,109.85 1501,114.5C 1495.61,122.784 1496.44,130.284 1503.5,137C 1529,152.585 1554.67,167.918 1580.5,183C 1610.17,204.629 1622.34,233.796 1617,270.5C 1611.15,313.345 1588.32,343.178 1548.5,360C 1515.62,372.507 1481.62,377.173 1446.5,374C 1422.65,372.974 1399.32,368.974 1376.5,362C 1370.91,359.549 1369.08,355.383 1371,349.5C 1373.9,330.745 1377.24,312.078 1381,293.5C 1382.83,291.667 1384.67,289.833 1386.5,288C 1418.15,289.986 1449.82,292.153 1481.5,294.5C 1489.93,294.448 1497.93,292.615 1505.5,289C 1513.51,282.288 1516.35,273.788 1514,263.5C 1512.26,259.759 1509.76,256.592 1506.5,254C 1482.83,238.333 1459.17,222.667 1435.5,207C 1412.18,188.196 1400.18,163.696 1399.5,133.5C 1401.56,77.2651 1430.23,43.4318 1485.5,32C 1494.62,30.3435 1503.62,28.8435 1512.5,27.5 Z"/></g>
<g><path style="opacity:0.995" fill="#0e4093" d="M 1776.5,27.5 C 1815.28,26.4087 1853.95,27.9087 1892.5,32C 1902.16,32.331 1905.66,37.1643 1903,46.5C 1899.97,65.3287 1896.31,83.9954 1892,102.5C 1890.83,103.667 1889.67,104.833 1888.5,106C 1853.58,107.32 1818.58,107.987 1783.5,108C 1776.91,108.543 1772.07,111.709 1769,117.5C 1765.39,131.73 1762.22,146.063 1759.5,160.5C 1796.83,161.333 1834.16,161.833 1871.5,162C 1876.44,162.833 1879.11,165.833 1879.5,171C 1876.04,190.602 1872.21,210.102 1868,229.5C 1866.5,231 1865,232.5 1863.5,234C 1824.89,235.316 1786.23,235.982 1747.5,236C 1744.75,249.078 1742.25,262.245 1740,275.5C 1739.21,279.926 1739.54,284.259 1741,288.5C 1742.64,290.81 1744.8,292.31 1747.5,293C 1782.8,294.286 1818.14,294.953 1853.5,295C 1856.84,296.886 1858.17,299.719 1857.5,303.5C 1854.32,323.222 1850.82,342.889 1847,362.5C 1845.02,365.745 1842.19,367.911 1838.5,369C 1799.29,374.327 1759.96,375.661 1720.5,373C 1696.87,370.581 1676.7,361.081 1660,344.5C 1645.84,325.067 1640.84,303.4 1645,279.5C 1654.12,226.128 1663.45,172.795 1673,119.5C 1677.4,97.5992 1686.4,77.9325 1700,60.5C 1713.9,45.9561 1730.74,36.4561 1750.5,32C 1759.29,30.3693 1767.96,28.8693 1776.5,27.5 Z"/></g>
<g><path style="opacity:0.995" fill="#0e4094" d="M 2384.5,27.5 C 2403.31,26.707 2421.97,27.8737 2440.5,31C 2460.52,35.686 2473.35,47.8527 2479,67.5C 2480.73,80.7683 2481.73,94.1017 2482,107.5C 2485.82,193.161 2489.15,278.828 2492,364.5C 2490.83,367 2489,368.833 2486.5,370C 2457.75,370.983 2429.08,370.65 2400.5,369C 2398.68,367.2 2397.52,365.034 2397,362.5C 2396.43,341.166 2395.93,319.833 2395.5,298.5C 2369.16,298.167 2342.82,298.5 2316.5,299.5C 2308.43,320.872 2300.26,342.206 2292,363.5C 2290.44,366.728 2287.94,368.895 2284.5,370C 2255.5,370.667 2226.5,370.667 2197.5,370C 2194.93,368.873 2193.6,366.873 2193.5,364C 2231.36,265.453 2270.19,167.286 2310,69.5C 2319.61,52.2297 2333.77,40.3964 2352.5,34C 2363.15,31.0634 2373.82,28.8967 2384.5,27.5 Z M 2387.5,104.5 C 2389.77,104.141 2391.6,104.808 2393,106.5C 2393.75,145.859 2394.58,185.192 2395.5,224.5C 2378.15,224.833 2360.82,224.5 2343.5,223.5C 2358.17,183.81 2372.84,144.143 2387.5,104.5 Z"/></g>
<g><path style="opacity:0.996" fill="#0e4094" d="M 1959.5,31.5 C 1980.84,31.3334 2002.17,31.5 2023.5,32C 2026.9,33.3999 2029.74,35.5665 2032,38.5C 2056.2,91.5673 2079.87,144.901 2103,198.5C 2104.02,201.21 2105.52,203.543 2107.5,205.5C 2117.81,149.13 2128.31,92.7964 2139,36.5C 2140.95,34.1064 2143.45,32.6064 2146.5,32C 2171.17,31.3333 2195.83,31.3333 2220.5,32C 2222.67,32.8333 2224.17,34.3333 2225,36.5C 2225.67,39.5 2225.67,42.5 2225,45.5C 2206.81,148.129 2188.81,250.795 2171,353.5C 2168.66,361.682 2163.5,367.182 2155.5,370C 2133.17,370.667 2110.83,370.667 2088.5,370C 2084.19,368.694 2080.69,366.194 2078,362.5C 2054.5,309.5 2031,256.5 2007.5,203.5C 2006.68,202.614 2005.68,202.281 2004.5,202.5C 1995.07,256.172 1985.57,309.839 1976,363.5C 1974.44,366.728 1971.94,368.895 1968.5,370C 1943.5,370.667 1918.5,370.667 1893.5,370C 1891,368.833 1889.17,367 1888,364.5C 1905.34,259.778 1923.34,155.111 1942,50.5C 1944.24,40.762 1950.07,34.4286 1959.5,31.5 Z"/></g>
<g><path style="opacity:0.994" fill="#e8480e" d="M 2584.5,31.5 C 2611.84,31.3334 2639.17,31.5 2666.5,32C 2669.88,34.0185 2671.22,37.0185 2670.5,41C 2668.94,52.2064 2667.1,63.373 2665,74.5C 2631.21,90.6446 2597.38,106.645 2563.5,122.5C 2562.69,122.192 2562.03,121.692 2561.5,121C 2566.61,93.1878 2571.77,65.3545 2577,37.5C 2579.13,34.8474 2581.63,32.8474 2584.5,31.5 Z"/></g>
<g><path style="opacity:0.993" fill="#0e4094" d="M 1232.5,100.5 C 1233.38,100.369 1234.04,100.702 1234.5,101.5C 1219.34,185.445 1204.51,269.445 1190,353.5C 1189.65,359.042 1187.15,363.209 1182.5,366C 1154.17,366.667 1125.83,366.667 1097.5,366C 1093.63,362.34 1092.47,357.84 1094,352.5C 1105.72,284.785 1117.72,217.118 1130,149.5C 1164.33,133.247 1198.5,116.914 1232.5,100.5 Z"/></g>
<g><path style="opacity:0.994" fill="#0e4093" d="M 2656.5,109.5 C 2657.59,109.62 2658.25,110.287 2658.5,111.5C 2643.66,196.23 2628.49,280.897 2613,365.5C 2611.46,367.378 2609.62,368.878 2607.5,370C 2579.08,370.983 2550.75,370.65 2522.5,369C 2519.74,366.005 2518.9,362.505 2520,358.5C 2531.47,291.372 2543.47,224.372 2556,157.5C 2589.64,141.597 2623.14,125.597 2656.5,109.5 Z"/></g>
</svg>
